<?xml version="1.0" encoding="UTF-8"?>
<svg id="Layer_1" data-name="Layer 1" xmlns="http://www.w3.org/2000/svg" version="1.1" viewBox="0 0 78 24">
  <defs>
    <style>
      .cls-1 {
        fill: #000;
        stroke-width: 0px;
      }
    </style>
  </defs>
  <path class="cls-1" d="M31.8,11.1c-2-.5-2.4-.8-2.4-1.6s.6-1.2,1.6-1.2,1.8.4,2.8,1.1c0,0,0,0,0,0,0,0,0,0,0,0,0,0,0,0,0,0l1-1.4s0,0,0,0c0,0,0,0,0,0-1.1-.9-2.4-1.4-3.9-1.4-2.2,0-3.7,1.3-3.7,3.3s1.3,2.8,3.6,3.4c1.9.5,2.3.8,2.3,1.5s-.7,1.2-1.7,1.2-2.1-.4-3.2-1.4c0,0,0,0,0,0,0,0,0,0,0,0,0,0,0,0,0,0,0,0,0,0,0,0l-1.1,1.4s0,0,0,0c0,0,0,0,0,0,1.3,1.1,2.8,1.8,4.5,1.8,2.4,0,3.9-1.3,3.9-3.4s-1-2.7-3.5-3.3ZM42.3,13.4c0,1.5-.9,2.5-2.1,2.5s-2.2-1.1-2.2-2.5.9-2.5,2.2-2.5,2.1,1,2.1,2.5ZM40.6,9c-1,0-1.9.4-2.5,1.3v-.9s0,0,0,0c0,0,0,0,0,0h-1.8s0,0,0,0c0,0,0,0,0,0,0,0,0,0,0,0,0,0,0,0,0,0v10.5c0,0,0,.1.1.1h1.8s0,0,0,0c0,0,0,0,0,0v-3.3c.7.8,1.5,1.2,2.5,1.2,1.9,0,3.8-1.5,3.8-4.4s-1.9-4.4-3.8-4.4ZM49.3,15.9c-1.3,0-2.3-1.1-2.3-2.5s.9-2.5,2.2-2.5,2.3,1.1,2.3,2.5-.9,2.5-2.3,2.5ZM49.3,9c-2.4,0-4.3,1.9-4.3,4.4s1.9,4.3,4.3,4.3,4.4-1.9,4.4-4.4-1.9-4.4-4.3-4.4h0ZM58.9,9.2h-2v-2.1s0,0,0,0c0,0,0,0,0,0,0,0,0,0,0,0,0,0,0,0,0,0h-1.8s0,0,0,0c0,0,0,0,0,0v2.1h-.9s0,0,0,0c0,0,0,0,0,0,0,0,0,0,0,0,0,0,0,0,0,0v1.6c0,0,0,.1.1.1h.9v4.1c0,1.7.8,2.5,2.4,2.5s1.2-.1,1.7-.4c0,0,0,0,0,0,0,0,0,0,0,0v-1.5s0,0,0,0c0,0,0,0,0,0,0,0,0,0,0,0,0,0,0,0,0,0-.3.2-.7.3-1.1.3-.6,0-.8-.3-.8-.9v-3.8h2s0,0,0,0c0,0,0,0,0,0,0,0,0,0,0,0,0,0,0,0,0,0v-1.6s0,0,0,0c0,0,0,0,0,0,0,0,0,0,0,0,0,0,0,0,0,0h0ZM65.8,9.2v-.3c0-.8.3-1.1.9-1.1s.7,0,1,.2c0,0,0,0,0,0,0,0,0,0,0,0,0,0,0,0,0,0s0,0,0,0v-1.6s0,0,0,0c0,0,0,0,0,0-.5-.2-1-.2-1.5-.2-1.7,0-2.6,1-2.6,2.8v.4h-.9s0,0,0,0,0,0,0,0v1.6c0,0,0,.1.1.1h.9v6.4c0,0,0,.1.1.1h1.8c0,0,.1,0,.1-.1v-6.4h1.7l2.6,6.4c-.3.7-.6.8-1,.8s-.7,0-1-.3c0,0,0,0,0,0,0,0,0,0,0,0,0,0,0,0,0,0,0,0,0,0,0,0l-.6,1.4s0,0,0,0c0,0,0,0,0,0,.6.3,1.3.5,1.9.5,1.3,0,2.1-.6,2.7-2.4l3.1-8.3s0,0,0,0c0,0,0,0,0,0,0,0,0,0,0,0,0,0,0,0,0,0h-1.9s0,0,0,0c0,0,0,0,0,0l-1.9,5.7-2.1-5.7s0,0,0,0c0,0,0,0,0,0h-3.1ZM61.8,9.2h-1.8s0,0,0,0c0,0,0,0,0,0v8.1c0,0,0,.1.1.1h1.8c0,0,.1,0,.1-.1v-8.1s0,0,0,0c0,0,0,0,0,0ZM60.9,5.5c-.3,0-.7.1-.9.4-.2.2-.4.6-.4.9,0,.2,0,.3,0,.5,0,.2.2.3.3.4.1.1.3.2.4.3.2,0,.3.1.5.1.3,0,.7-.1.9-.4.2-.2.4-.6.4-.9,0-.7-.6-1.3-1.3-1.3ZM76.8,10h-.3v.4h.3c.2,0,.3,0,.3-.2s0-.2-.3-.2ZM77,10.6l.4.5h-.3l-.3-.5h-.3v.5h-.3v-1.4h.6c.3,0,.5.2.5.4,0,0,0,.2,0,.3,0,0-.1.1-.2.2ZM76.7,9.3c-.7,0-1.1.5-1.1,1.2s.5,1.2,1.1,1.2,1.1-.5,1.1-1.2-.5-1.2-1.1-1.2ZM76.7,11.8c-.2,0-.3,0-.5-.1-.2,0-.3-.2-.4-.3-.1-.1-.2-.3-.3-.4,0-.2,0-.3,0-.5,0-.7.6-1.3,1.3-1.3.2,0,.3,0,.5.1.2,0,.3.2.4.3.1.1.2.3.3.4,0,.2,0,.3,0,.5,0,.7-.6,1.3-1.3,1.3h0ZM19.1,10.6c-3.9-2.3-10.2-2.5-13.9-1.4-.6.2-1.2-.2-1.4-.7-.2-.6.2-1.2.7-1.4,4.2-1.3,11.3-1,15.7,1.6.5.3.7,1,.4,1.5-.3.5-1,.7-1.5.4ZM17.7,14.3c-3.2-2-8.1-2.6-12-1.4-.5.1-1-.1-1.2-.6-.1-.5.1-1,.6-1.2,4.4-1.3,9.8-.7,13.5,1.6.4.3.6.8.3,1.3-.3.4-.8.6-1.3.3ZM16.5,17.6c-2.8-1.7-6.4-2.1-10.5-1.2-.4,0-.8-.2-.9-.6,0-.4.2-.8.6-.9,4.6-1,8.5-.6,11.7,1.3.4.2.5.7.2,1-.2.4-.7.5-1,.2ZM0,12c0,6.6,5.4,12,12,12s12-5.4,12-12S18.6,0,12,0,0,5.4,0,12Z"/>
</svg>